PathFileType	4	(X/Y/Z)	C:/Users/beibeiliu/ov580/test_trc\sequence.5_training_dense_left.trc
DataRate	CameraRate	NumFrames	NumMarkers	Units	OrigDataRate	OrigDataStartFrame	OrigNumFrames
120	120	10	19	mm	120	1	100
Frame#	Time	ThumbCMC			ThumbMCP			ThumbIP			ThumbTip			IndexMCP			IndexPIP			IndexTip			MiddleMCP			MiddlePIP			MiddleTip			RingMCP			RingPIP			RingTip			PinkyMCP			PinkyPIP			PinkyTip			BackHand1			BackHand2			BackHand3	
		X0	Y0	Z0	X1	Y1	Z1	X2	Y2	Z2	X3	Y3	Z3	X4	Y4	Z4	X5	Y5	Z5	X6	Y6	Z6	X7	Y7	Z7	X8	Y8	Z8	X9	Y9	Z9	X10	Y10	Z10	X11	Y11	Z11	X12	Y12	Z12	X13	Y13	Z13	X14	Y14	Z14	X15	Y15	Z15	X16	Y16	Z16	X17	Y17	Z17	X18	Y18	Z18	
0	0	-138.277	41.1357	91.6419	-126.294	25.8255	70.7212	-117.865	17.7014	48.7741	-117.839	7.063	25.7543	-151.109	41.1268	23.8728	-146.618	30.7201	2.47102	-143.098	11.9893	-20.0395	-171.4	38.4734	17.6008	-173.048	27.6487	-6.52037	-174.514	8.25772	-26.2989	-188.851	35.481	23.215	-191.309	28.6977	4.58979	-192.567	16.3494	-14.5935	-209.193	29.3415	38.4958	-211.56	22.9264	23.3276	-210.259	13.7434	2.57869	-188.689	52.2917	65.3997	-188.989	58.5807	95.6969	-163.918	60.1707	77.8885	
1	0.00833333	-141.959	37.3418	89.6908	-127.693	23.2436	69.6344	-125.423	14.8142	49.2349	-120.949	3.32538	27.1707	-153.839	37.0533	22.7428	-150.604	25.3417	-1.05025	-147.432	7.33242	-19.9692	-172.989	33.796	15.4864	-174.307	24.8209	-4.01446	-176.869	3.6904	-25.6343	-195.335	31.1998	25.9164	-192.431	23.3387	4.98471	-194.237	9.41734	-18.3774	-208.138	25.7689	42.5696	-214.261	16.1147	19.4438	-215.39	9.68444	4.25549	-192.947	47.6405	69.4794	-190.102	56.0838	92.935	-165.062	55.7593	76.2846	
2	0.0166667	-143.28	33.4726	92.8452	-130.488	19.6927	73.7609	-123.666	9.79653	47.3775	-122.734	0.834151	33.1062	-149.982	31.9705	20.6646	-152.082	22.0265	2.57443	-145.05	7.24615	-16.15	-176.497	30.5811	20.0263	-175.838	19.4759	-3.29385	-175.387	1.56208	-23.4885	-191.318	27.9831	28.7349	-194.103	16.6615	2.58243	-196.479	4.8026	-15.5142	-211.085	22.3067	42.5369	-215.406	12.4291	23.2114	-214.495	3.65597	6.63824	-194.768	44.6132	69.9164	-190.405	51.1324	93.9074	-167.754	52.1382	80.1414	
3	0.025	-141.003	31.2156	89.0367	-132.378	16.748	71.7456	-126.123	7.41373	50.5241	-122.223	-2.32661	35.2811	-153.792	28.6732	22.4068	-149.045	18.0676	0.414551	-151.751	4.42691	-13.932	-175.196	28.0495	22.3098	-177.472	15.2462	-3.80503	-179.584	-2.43787	-22.424	-192.349	24.6989	27.2153	-196.326	14.144	5.18487	-195.891	5.00451	-10.2138	-207.469	19.8257	44.6457	-212.683	12.002	23.8767	-217.086	3.24367	7.13385	-193.677	40.8804	68.205	-194.878	48.6611	93.79	-166.993	49.7733	77.9837	
4	0.0333333	-146.174	30.1453	93.3827	-132.019	16.1324	70.2657	-124.169	6.75869	51.8257	-121.511	-3.49642	32.9495	-151.902	29.7658	25.723	-151.466	19.9435	5.15846	-147.858	5.12663	-14.0361	-174.344	26.9702	16.8808	-175.609	13.0161	-4.91877	-178.261	-1.08209	-21.4714	-197.851	22.6762	29.2159	-196.271	13.4519	4.1713	-198.896	0.922696	-12.9902	-214.08	17.5962	43.5167	-212.315	11.4918	25.7781	-218.232	2.42571	7.5398	-195.522	42.0108	69.2016	-190.075	49.1131	92.8207	-168.51	48.0429	78.6393	
5	0.0416667	-146.349	31.4579	88.729	-133.309	18.2505	70.4911	-127.844	9.06529	47.5766	-122.273	-1.81986	30.9019	-151.63	31.402	26.3109	-154.437	18.3558	1.69568	-148.529	6.06425	-14.0567	-178.739	26.7422	17.9772	-176.752	15.8657	-3.289	-181.127	-2.32408	-21.7324	-198.894	23.718	28.4512	-199.339	13.1087	4.25871	-199.956	1.96543	-10.6763	-212.607	19.8294	42.5629	-213.08	12.611	26.6884	-217.591	0.0136832	8.77578	-193	43.5599	72.2564	-193.253	48.9768	94.7898	-166.142	49.7333	79.6675	
6	0.05	-144.467	34.5542	88.3716	-131.168	20.4792	68.7739	-128.527	10.8559	51.4539	-124.625	2.03198	31.6563	-155.745	33.4638	20.8768	-150.65	24.5908	4.48476	-150.012	9.76876	-14.9308	-179.532	29.9458	16.5797	-175.865	19.7856	-2.62736	-176.913	-3.00987	-23.2603	-193.946	27.7575	28.7842	-196.664	15.4837	5.34851	-192.606	-1.40596	-14.1859	-214.707	20.7373	41.2017	-214.493	9.63217	20.4624	-213.637	-2.73506	6.19451	-192.577	43.8589	72.1114	-195.872	50.5892	95.9858	-170.66	53.6881	80.5723	
7	0.0583333	-145.442	39.1734	92.3195	-132.207	24.0209	71.1309	-124.965	15.4475	46.6063	-121.234	5.015	29.9021	-155.204	41.1171	21.4446	-149.631	29.3542	-0.659662	-149.788	16.7137	-16.3983	-176.927	34.1178	15.9122	-174.338	20.1231	-3.77257	-166.57	-9.25113	-17.0854	-193.055	30.1633	26.0744	-195.073	12.6762	4.65226	-187.137	-7.05744	-5.24237	-213.5	22.276	36.6794	-210.131	11.1946	21.1424	-201.354	-10.2079	8.39156	-199.194	45.9012	71.244	-197.489	52.2212	93.4291	-169.747	58.6986	79.2443	
8	0.0666667	-146.581	42.1991	88.5052	-134.121	26.9295	67.3506	-129.388	18.4285	47.9103	-125.018	7.62527	26.2477	-156.672	48.0152	23.6572	-151.954	37.0002	-2.6153	-143.715	21.5899	-20.5429	-175.633	37.5532	18.4087	-171.645	14.1525	-3.50627	-160.605	-12.4129	-1.82326	-192.893	28.7009	23.4988	-187.626	8.15661	7.10384	-170.813	-14.2473	10.2171	-210.991	21.1227	39.5516	-203.346	7.05168	21.6172	-187.368	-14.4803	20.1124	-197.574	46.7599	68.8035	-199.749	52.0243	95.9032	-173.377	59.1421	80.0511	
9	0.075	-149.089	44.4637	88.7529	-130.47	28.3064	66.3897	-124.464	19.5968	48.1028	-126.761	7.71389	29.4706	-157.313	51.8007	21.7689	-156.706	43.5284	0.222888	-148.998	28.3936	-20.4652	-173.075	37.2663	15.3319	-163.933	14.302	-0.393042	-153.687	-10.8618	13.5731	-187.092	26.9821	21.3888	-181.688	3.02985	11.7105	-164.502	-13.7833	27.7796	-203.562	20.1874	38.1893	-193.001	-1.03031	24.5497	-174.629	-12.141	34.9681	-201.217	46.2596	68.116	-200.704	52.1292	90.8983	-174.394	61.5377	79.9647	
